<svg xmlns="http://www.w3.org/2000/svg" viewBox="0 0 512 512" width="512" height="512">
  <defs>
    <linearGradient id="bgGrad" x1="0%" y1="0%" x2="100%" y2="100%">
      <stop offset="0%" stop-color="#6366f1" />
      <stop offset="100%" stop-color="#0ea5e9" />
    </linearGradient>
    <linearGradient id="sparkleGrad" x1="0%" y1="0%" x2="100%" y2="100%">
      <stop offset="0%" stop-color="#fbbf24" />
      <stop offset="100%" stop-color="#f43f5e" />
    </linearGradient>
  </defs>

  <!-- Background Card -->
  <rect x="32" y="32" width="448" height="448" rx="112" fill="url(#bgGrad)" />

  <!-- Message Bubble -->
  <path d="M144 144 h224 c26.5 0 48 21.5 48 48 v128 c0 26.5 -21.5 48 -48 48 h-80 l-64 56 v-56 h-80 c-26.5 0 -48 -21.5 -48 -48 v-128 c0 -26.5 21.5 -48 48 -48 z" fill="#ffffff" />

  <!-- Inner Loop Dots & Connectors -->
  <circle cx="216" cy="256" r="28" fill="#6366f1" />
  <circle cx="296" cy="256" r="28" fill="#0ea5e9" />
  <path d="M216 232 c24 0 56 48 80 48 c24 0 24 -48 0 -48 c-24 0 -56 48 -80 48 c-24 0 -24 -48 0 -48 z" fill="none" stroke="#6366f1" stroke-width="14" stroke-linecap="round" stroke-linejoin="round" />

  <!-- Sparkle Badge -->
  <path d="M380 120 l10 24 l24 10 l-24 10 l-10 24 l-10 -24 l-24 -10 l24 -10 z" fill="url(#sparkleGrad)" />
</svg>